<?xml version="1.0" encoding="utf-8"?>
<!-- Generator: Adobe Illustrator 25.3.1, SVG Export Plug-In . SVG Version: 6.00 Build 0)  -->
<svg version="1.1" id="Capa_1" xmlns="http://www.w3.org/2000/svg" xmlns:xlink="http://www.w3.org/1999/xlink" x="0px" y="0px"
	 viewBox="0 0 707.79 709.71" style="enable-background:new 0 0 707.79 709.71;" xml:space="preserve">
<style type="text/css">
	.st0{fill:#F4C59C;stroke:#000000;stroke-miterlimit:10;}
	.st1{fill:#991915;stroke:#010202;stroke-width:0.6;stroke-miterlimit:10;}
	.st2{fill:#FFFFFF;stroke:#010202;stroke-miterlimit:10;}
	.st3{fill:#FFFFFF;stroke:#010202;stroke-width:0.5;stroke-miterlimit:10;}
	.st4{fill:#EF7B1A;stroke:#010202;stroke-miterlimit:10;}
	.st5{fill:#C66016;}
	.st6{fill:#203460;stroke:#000000;stroke-miterlimit:10;}
	.st7{fill:#F4C59C;}
	.st8{fill:#FFFFFF;}
	.st9{fill:#64BFB0;}
	.st10{fill:#479687;}
	.st11{fill:#010202;}
	.st12{fill:#FFFFFF;stroke:#010202;stroke-width:0.1;stroke-miterlimit:10;}
	.st13{fill:#FDFCFC;}
	.st14{fill:#CF3E30;}
	.st15{font-family:'MADETommySoft-ExtraBold';}
	.st16{font-size:15.5116px;}
	.st17{font-family:'MADETommySoft-Thin';}
	.st18{font-size:4.2565px;}
</style>
<g id="XMLID_159_">
	<path id="XMLID_164_" class="st0" d="M445.66,533.45c2.31-0.56,4.22-0.36,4.22-0.36s29.71,5.25,32.92,51.44
		c23.88,0.31,43.37,13.48,43.37,29.7c0,16.42-19.95,29.73-44.22,29.73c-24.27,0-43.95-13.31-43.95-29.73
		c0-10.41,7.92-19.55,19.89-24.86c-0.18-0.79-0.3-1.6-0.35-2.42c-1.41-24.69-8.31-33.12-13.51-35.93
		C436.39,546.88,437.23,535.5,445.66,533.45z"/>
	<path id="XMLID_163_" class="st1" d="M457.88,589.36c0,0,23.07,15.77,24.92-4.84c0,0,22.72-1.34,34.08,11.54l-27.23,38.25
		l-37.52-6.07l-11.89-23.39C440.24,604.84,445.77,590.51,457.88,589.36z"/>
	<path id="XMLID_162_" class="st2" d="M516.88,596.06c0,0-27.47-0.16-27.47,32.02c0,8.38-42.29-0.56-49.18-23.24
		c0,0-10.26,21.96,12.25,33.46c28.5,14.55,56.16,3.6,66.49-7.88C529.32,618.94,529.11,603.36,516.88,596.06z"/>
	<path id="XMLID_161_" class="st3" d="M488,605.2c3.64-1.01,7.13-2.75,9.81-5.46c1.49-1.51,2.7-3.28,3.56-5.22
		c0.33-0.74,0.69-1.37,1.11-1.9c1.48-1.86-1.14-4.31-2.83-2.64c-0.29,0.28-0.52,0.65-0.69,1.11c-2.33,6.36-7.56,9.26-12.46,10.54
		c-0.18,0.05-0.35,0.11-0.5,0.18c-2.22,1.04-0.67,4.41,1.61,3.51C487.73,605.28,487.86,605.24,488,605.2z"/>
	<path id="XMLID_160_" class="st3" d="M479,602.54c3.64-1.01,7.13-2.75,9.81-5.46c1.49-1.51,2.7-3.28,3.56-5.22
		c0.33-0.74,0.69-1.37,1.11-1.9c1.48-1.86-1.14-4.31-2.83-2.64c-0.29,0.28-0.52,0.65-0.69,1.11c-2.33,6.36-7.56,9.26-12.46,10.54
		c-0.18,0.05-0.35,0.11-0.5,0.18c-2.22,1.04-0.67,4.41,1.61,3.51C478.74,602.61,478.86,602.57,479,602.54z"/>
</g>
<g id="XMLID_126_">
	<path id="XMLID_131_" class="st0" d="M308.22,540.03c-2.31-0.56-4.22-0.36-4.22-0.36s-29.71,5.25-32.92,51.44
		c-23.88,0.31-43.37,13.48-43.37,29.7c0,16.42,19.95,29.73,44.22,29.73c24.27,0,43.95-13.31,43.95-29.73
		c0-10.41-7.92-19.55-19.89-24.86c0.18-0.79,0.3-1.6,0.35-2.42c1.41-24.69,8.31-33.12,13.51-35.93
		C317.49,553.46,316.65,542.08,308.22,540.03z"/>
	<path id="XMLID_130_" class="st1" d="M295.99,595.94c0,0-23.07,15.77-24.92-4.84c0,0-22.72-1.34-34.08,11.54l27.23,38.25
		l37.52-6.07l11.89-23.39C313.64,611.42,308.11,597.09,295.99,595.94z"/>
	<path id="XMLID_129_" class="st2" d="M236.99,602.64c0,0,27.47-0.16,27.47,32.02c0,8.38,42.29-0.56,49.18-23.24
		c0,0,10.26,21.96-12.25,33.46c-28.5,14.55-56.16,3.6-66.49-7.88S224.76,609.94,236.99,602.64z"/>
	<path id="XMLID_128_" class="st3" d="M265.88,611.78c-3.64-1.01-7.13-2.75-9.81-5.46c-1.49-1.51-2.7-3.28-3.56-5.22
		c-0.33-0.74-0.69-1.37-1.11-1.9c-1.48-1.86,1.14-4.31,2.83-2.64c0.29,0.28,0.52,0.65,0.69,1.11c2.33,6.36,7.56,9.26,12.46,10.54
		c0.18,0.05,0.35,0.11,0.5,0.18c2.22,1.04,0.67,4.41-1.61,3.51C266.15,611.86,266.02,611.82,265.88,611.78z"/>
	<path id="XMLID_127_" class="st3" d="M274.88,609.12c-3.64-1.01-7.13-2.75-9.81-5.46c-1.49-1.51-2.7-3.28-3.56-5.22
		c-0.33-0.74-0.69-1.37-1.11-1.9c-1.48-1.86,1.14-4.31,2.83-2.64c0.29,0.28,0.52,0.65,0.69,1.11c2.33,6.36,7.56,9.26,12.46,10.54
		c0.18,0.05,0.35,0.11,0.5,0.18c2.22,1.04,0.67,4.41-1.61,3.51C275.14,609.19,275.01,609.15,274.88,609.12z"/>
</g>
<g>
	<path class="st0" d="M462.82,251.95c-1.07,7.96-1.26,15.93,7.37,19.27c8.21,3.18,13.11-2.85,17.59-8.96
		c20.26-27.63,40.84-55.02,60.93-82.77c5.15-7.11,11.24-9.17,19.49-7.91c8.24,1.25,13.26,6.34,14.88,13.7
		c0.97,4.41,0.06,10.17-2.11,14.19C562.44,233.76,542,267.1,525.2,302.19c-8.4,17.54-10.93,38.01-15.19,57.37
		c-3.39,15.38-5.15,31.11-8.01,46.62c-5.2,28.13-21.59,49.98-40.42,70.28c-19.38,20.91-44.86,20.45-70.59,20.26
		c-69.46-0.49-132.88-24.62-196.41-48.76c-18.2-6.92-36.92-12.44-55.23-19.1c-8.81-3.2-19.92-5.44-20.45-17.39
		c-0.51-11.36,6.62-20.26,16.68-23.74c10.29-3.56,22.12-6.31,32.63-4.82c23.02,3.25,45.68,9.23,68.4,14.43
		c26.21,5.99,46.96-8.87,50.68-35.47c5.4-38.55-0.12-74.69-18.26-109.53c-16.93-32.51-31.74-66.13-47.4-99.31
		c-1.74-3.69-3.51-7.53-4.25-11.49c-2.21-11.71,2.25-21.36,11.07-25.24c8.53-3.75,19.85-0.77,26.23,8.59
		c6.74,9.88,12.17,20.65,18.01,31.13c16.53,29.67,32.97,59.39,49.45,89.09c1.17,2.1,1.88,5.07,3.68,6.09
		c5.6,3.16,11.63,5.58,17.49,8.29c2.12-5.31,6.4-10.78,6.02-15.91c-3.17-43.35-7.18-86.64-10.98-129.95
		c-0.93-10.57-2.17-21.11-2.99-31.69c-0.94-12.1,3.84-21.6,12.22-25.04c8.24-3.37,25.22,1.47,30.88,9.23
		c1.71,2.34,2.76,5.53,3.09,8.44c6.05,54.06,11.95,108.13,17.88,162.21c0.68,6.23,0.81,13.02,9.66,12.97
		c7.88-0.05,8.67-6.04,9.86-12.03c9.58-48.46,19.27-96.9,29.03-145.32c1.9-9.45,9.24-14.08,19.14-12.56
		c11.72,1.8,19.78,12.39,18.29,24.49C482.3,129.53,466.06,227.8,462.82,251.95z"/>
</g>
<path class="st4" d="M278.7,477.75c0,0,23.95,6.7,0,69.36c-5.91,15.46,7.14,18.86,30.14,18.65c23.27-0.21,21.42-42.16,42.31-45.8
	c86.74-15.14,54.33,31.63,75.09,38.01c32.62,10.02,43.2-4.11,43.2-4.11s7.2-36.39-9-95.52C454.33,436.02,278.7,477.75,278.7,477.75z
	"/>
<path class="st5" d="M451.36,485.24c0,0,13.77,29.16,13.77,35.41s0,18.98,0,18.98v15.79l6.84-6.07c0,0-2.2-68.87-10.39-72.89
	C453.38,472.44,451.36,485.24,451.36,485.24z"/>
<path class="st6" d="M517.36,222.2c-9.88,13.34-19.77,26.67-29.58,40.06c-4.48,6.11-9.38,12.14-17.59,8.96
	c-8.62-3.34-8.43-11.31-7.37-19.27c1.51-11.27,5.85-38.69,10.37-67.29l-38.65-25.37c-5.23,26.13-10.43,52.27-15.6,78.42
	c-1.18,5.99-1.97,11.98-9.86,12.03c-8.85,0.06-8.98-6.74-9.66-12.97c-3.16-28.83-6.32-57.66-9.49-86.5l-47.53,9.42
	c2.46,27.95,4.86,55.9,6.91,83.87c0.38,5.13-3.9,10.6-6.02,15.91c-5.86-2.71-11.88-5.12-17.49-8.29c-1.8-1.02-2.51-3.99-3.68-6.09
	c-13.41-24.16-26.8-48.32-40.22-72.47c-14.37,3.8-31.02,8.99-44.05,15.29c10.03,21.66,20.15,43.27,31.16,64.42
	c18.14,34.84,23.66,70.98,18.26,109.53c-3.73,26.6-24.47,41.47-50.68,35.47c-12.17-2.78-24.32-5.78-36.51-8.47l-4.14,59.62
	c63.07,23.96,126.08,47.75,195.03,48.23c25.74,0.18,51.21,0.64,70.59-20.26c18.82-20.3,35.22-42.15,40.42-70.28
	c2.87-15.51,4.63-31.24,8.01-46.62c4.26-19.35,6.79-39.83,15.19-57.37c5.79-12.08,12.02-23.95,18.44-35.72L517.36,222.2z"/>
<ellipse class="st7" cx="392.86" cy="345.71" rx="96.83" ry="62.65"/>
<ellipse id="XMLID_19_" transform="matrix(0.2796 -0.9601 0.9601 0.2796 -16.8357 668.7177)" class="st3" cx="437.19" cy="345.58" rx="43.79" ry="32.17"/>
<circle id="XMLID_18_" class="st8" cx="421.36" cy="361.38" r="2.09"/>
<g id="XMLID_16_">
	<circle class="st9" cx="435.7" cy="350.71" r="24.56"/>
	<path class="st10" d="M459.31,357.58c-1.74,6.21-6.05,11.65-11.72,14.78c-2.83,1.57-5.96,2.59-9.19,2.97
		c-3.22,0.39-6.52,0.04-9.62-0.86c-6.23-1.82-11.63-6.2-14.69-11.9c-1.53-2.84-2.53-5.97-2.9-9.17c-0.37-3.21-0.09-6.49,0.8-9.6
		c1.76-6.23,6.07-11.72,11.78-14.82c5.68-3.15,12.62-3.92,18.86-2.09c3.11,0.92,6.07,2.42,8.58,4.47c2.52,2.05,4.62,4.6,6.15,7.45
		C460.46,344.51,461.17,351.41,459.31,357.58z M459.26,357.57c1.78-6.18,0.99-13.03-2.16-18.6c-3.11-5.6-8.48-9.81-14.59-11.6
		c-6.12-1.81-12.92-1.07-18.51,2.02c-2.79,1.54-5.29,3.61-7.3,6.08c-2.01,2.47-3.52,5.35-4.44,8.42c-1.82,6.13-1.15,13,2,18.6
		c3.1,5.62,8.48,9.89,14.63,11.62c6.14,1.75,12.93,1.06,18.56-2C453.1,369.09,457.44,363.74,459.26,357.57z"/>
</g>
<circle id="XMLID_15_" class="st11" cx="436.45" cy="353.42" r="19.65"/>
<circle id="XMLID_3_" class="st12" cx="430.93" cy="343.89" r="7.86"/>
<ellipse id="XMLID_25_" transform="matrix(0.9601 -0.2796 0.2796 0.9601 -82.9826 109.3593)" class="st3" cx="341.87" cy="345.58" rx="32.17" ry="43.79"/>
<circle id="XMLID_24_" class="st8" cx="357.7" cy="361.38" r="2.09"/>
<g id="XMLID_22_">
	<circle class="st9" cx="343.36" cy="350.71" r="24.56"/>
	<path class="st10" d="M319.8,357.57c1.82,6.17,6.16,11.52,11.81,14.54c5.63,3.06,12.42,3.74,18.56,2c6.15-1.74,11.54-6,14.63-11.62
		c3.15-5.6,3.82-12.47,2-18.6c-0.92-3.06-2.43-5.94-4.44-8.42c-2.01-2.48-4.51-4.54-7.3-6.08c-5.59-3.09-12.39-3.83-18.51-2.02
		c-6.11,1.79-11.48,6.01-14.59,11.6C318.81,344.54,318.02,351.38,319.8,357.57z M319.75,357.58c-1.87-6.17-1.15-13.07,1.94-18.77
		c1.54-2.85,3.64-5.4,6.15-7.45c2.51-2.06,5.47-3.56,8.58-4.47c6.24-1.83,13.18-1.07,18.86,2.09c5.71,3.11,10.03,8.6,11.78,14.82
		c0.89,3.11,1.17,6.39,0.8,9.6c-0.37,3.21-1.37,6.33-2.9,9.17c-3.06,5.69-8.46,10.08-14.69,11.9c-3.11,0.9-6.4,1.25-9.62,0.86
		c-3.22-0.37-6.36-1.39-9.19-2.97C325.8,369.23,321.49,363.79,319.75,357.58z"/>
</g>
<circle id="XMLID_21_" class="st11" cx="342.61" cy="353.42" r="19.65"/>
<circle id="XMLID_17_" class="st12" cx="348.13" cy="343.89" r="7.86"/>
<path class="st5" d="M334.48,509.87c0,0-4.55,31.67-11.53,39.48s-14.11,16.41-14.11,16.41s18.39-0.62,33.76-44.48L334.48,509.87z"/>
<path class="st6" d="M237.86,187.92l-4.48,4.56c0,0,7.12,10.23,7.12,10.23c1.08,1.69,24.23-7.62,26.25-8.32
	c6.38-2.2,12.75-4.44,19.12-6.67c2.96-1.04,9.08-1.39,10.33-5.16c1.24-3.75-5.98-13.82-10.14-12.3
	C286.06,170.26,237.86,187.92,237.86,187.92z"/>
<path class="st6" d="M434.8,155.24l-6.37-0.57c0,0-3.39,11.99-3.39,12c-0.62,1.91,21.27,13.89,23.09,15.01
	c5.75,3.53,11.52,7.04,17.29,10.55c2.68,1.63,6.83,6.13,10.54,4.71c3.69-1.42,6.88-13.39,3.07-15.64
	C479.03,181.29,434.8,155.24,434.8,155.24z"/>
<path class="st6" d="M517.23,219.63l-6.13-1.83c0,0-5.72,11.07-5.72,11.08c-0.99,1.75,18.06,17.86,19.63,19.32
	c4.93,4.61,9.89,9.2,14.84,13.79c2.3,2.13,5.47,7.37,9.39,6.72c3.89-0.65,9.42-11.75,6.13-14.71
	C555.37,253.99,517.23,219.63,517.23,219.63z"/>
<path class="st6" d="M194.4,453.13l2.81,6.56c0,0,12.29-5.46,12.29-5.46c1.99-0.79,1.12-30.63,1.15-33.21
	c0.11-8.12,0.18-16.24,0.25-24.36c0.04-3.78,1.82-11.06-1.35-13.6c-3.16-2.53-15.33,3.1-15.32,8.42
	C194.24,391.48,194.4,453.13,194.4,453.13z"/>
<path class="st6" d="M339.12,152.36l-5.47,3.31c0,0,4.37,11.67,4.37,11.67c0.63,1.9,25.36-1.41,27.5-1.59
	c6.73-0.56,13.45-1.16,20.18-1.75c3.13-0.27,9.14,0.89,11.28-2.45c2.13-3.32-2.39-14.86-6.79-14.42
	C390.19,147.14,339.12,152.36,339.12,152.36z"/>
<g>
	<path class="st11" d="M385.94,475.36c-17.88,0.06-36.31-15.42-40.65-30.81c-1.13-4.03-1.32-8.07,0.39-11.99
		c1.9-4.35,5.31-6.08,9.76-5.07c4.55,1.02,8.78,3.09,13.22,4.46c12.86,3.96,25.43,2.57,37.81-2.31c2.82-1.11,5.56-2.44,8.61-2.87
		c5.36-0.76,8.6,5.37,8.13,9.34c-0.88,7.4-3.99,13.8-7.91,19.82c-4.9,7.51-10.88,13.76-19.03,17.3
		C392.85,474.71,389.3,475.6,385.94,475.36z M354.15,429.01c-4.34-0.03-7.09,2.7-7.27,6.47c-0.12,2.44,3.29,7.28,5.8,8.48
		c3.4,1.63,6.87,2.92,10.56,3.68c1.61,0.33,2.96,0.77,3.75-1.21c0.3-0.75,0.86-1.59,1.44-1.51c0.69,0.1,1.02,1.06,0.99,1.91
		c-0.04,1.31,0.5,1.67,1.76,1.96c2.23,0.51,4.43,0.22,6.64,0.39c3.98,0.32,7.98,0.36,11.95,0.05c1.97-0.16,3.95,0.86,5.75,0.18
		c2.21-0.84,4.49-0.6,6.72-1.07c3.38-0.71,6.77-1.15,10-2.65c3.87-1.8,6.59-4.55,8.31-8.62c1.12-2.63,0.74-4.76-0.97-6.87
		c-1.67-2.05-3.75-1.99-5.93-1.45c-0.91,0.23-1.79,0.58-2.66,0.94c-5.97,2.41-11.99,4.59-18.36,5.6
		c-5.83,0.93-11.74,1.07-17.47,0.17c-4.47-0.7-8.93-2.27-13.23-4.06C359.19,430.28,356.42,429.13,354.15,429.01z M389.22,473.66
		c4.94,0.15,11.34-4.26,17.33-9.66c0.84-0.76,0.83-1.37-0.22-1.89c-1.71-0.84-3.44-1.57-5.34-1.88c-5.3-0.87-10.32,0.41-15.3,2.03
		c-1.36,0.44-2.55,0.53-3.88-0.13c-2.89-1.43-6-2.1-9.13-2.53c-3.98-0.55-7.77-0.02-11.29,2.25c-1.23,0.8-1.35,1.35-0.19,2.25
		C368.53,469.81,376.57,473.48,389.22,473.66z"/>
	<path class="st13" d="M354.15,429.01c2.27,0.12,5.05,1.27,7.78,2.41c4.3,1.79,8.76,3.36,13.23,4.06c5.73,0.9,11.64,0.76,17.47-0.17
		c6.37-1.02,12.39-3.19,18.36-5.6c0.87-0.35,1.76-0.71,2.66-0.94c2.18-0.54,4.27-0.6,5.93,1.45c1.71,2.1,2.09,4.23,0.97,6.87
		c-1.73,4.07-4.45,6.82-8.31,8.62c-3.23,1.5-6.62,1.93-10,2.65c-2.23,0.47-4.51,0.23-6.72,1.07c-1.8,0.68-3.79-0.33-5.75-0.18
		c-3.97,0.31-7.97,0.27-11.95-0.05c-2.21-0.18-4.41,0.12-6.64-0.39c-1.26-0.29-1.8-0.65-1.76-1.96c0.03-0.85-0.3-1.81-0.99-1.91
		c-0.58-0.08-1.14,0.76-1.44,1.51c-0.79,1.98-2.14,1.53-3.75,1.21c-3.69-0.75-7.16-2.05-10.56-3.68c-2.51-1.2-5.92-6.05-5.8-8.48
		C347.06,431.71,349.8,428.98,354.15,429.01z"/>
	<path class="st14" d="M389.22,473.66c-12.66-0.18-20.69-3.84-28.03-9.56c-1.16-0.9-1.04-1.46,0.19-2.25
		c3.52-2.27,7.32-2.81,11.29-2.25c3.13,0.44,6.24,1.11,9.13,2.53c1.33,0.66,2.52,0.57,3.88,0.13c4.98-1.62,10-2.9,15.3-2.03
		c1.9,0.31,3.63,1.04,5.34,1.88c1.05,0.52,1.06,1.13,0.22,1.89C400.56,469.39,394.17,473.81,389.22,473.66z"/>
</g>
<g>
	<g>
		<path class="st8" d="M271.4,432.15c0.21-0.9,0.33-1.63,0.55-2.33c0.55-1.7,1.56-3.1,2.81-4.37c0.37-0.37,0.66-0.95,0.73-1.47
			c0.13-0.99-0.83-1.67-1.76-1.28c-0.39,0.16-0.75,0.47-1.02,0.8c-0.85,1.04-1.65,2.13-2.47,3.2c-0.14,0.18-0.29,0.34-0.54,0.46
			c0.18-0.55,0.35-1.1,0.54-1.64c0.58-1.69,1.17-3.38,1.74-5.07c0.08-0.24,0.15-0.48,0.19-0.73c0.1-0.7-0.29-1.45-0.84-1.61
			c-0.52-0.15-1.13,0.19-1.46,0.86c-0.6,1.21-1.18,2.42-1.77,3.63c-0.45,0.93-0.91,1.85-1.37,2.77c-0.08,0.15-0.18,0.3-0.32,0.54
			c-0.45-1.15-0.19-2.2-0.06-3.22c0.2-1.58,0.54-3.14,0.79-4.72c0.06-0.39,0.07-0.83-0.06-1.18c-0.13-0.33-0.46-0.79-0.74-0.82
			c-0.36-0.04-0.94,0.18-1.12,0.47c-0.37,0.59-0.63,1.28-0.76,1.97c-0.4,2.15-0.71,4.31-1.05,6.46c-0.02,0.14-0.09,0.28-0.27,0.47
			c-0.13-0.33-0.32-0.65-0.38-0.99c-0.4-2.12-0.77-4.25-1.14-6.38c-0.12-0.69-0.38-1.24-1.11-1.45c-0.79-0.24-1.39,0.13-1.37,0.95
			c0.03,1,0.16,2.01,0.29,3.01c0.31,2.42,0.65,4.83,0.95,7.24c0.09,0.7-0.03,1.4-0.74,1.74c-0.84,0.4-1.74,0.42-2.51-0.17
			c-1.16-0.88-2.27-1.81-3.4-2.73c-0.41-0.34-0.9-0.61-1.38-0.32c-0.36,0.21-0.71,0.61-0.85,1c-0.18,0.5,0.21,0.9,0.6,1.22
			c1.01,0.82,2.05,1.61,3.02,2.48c0.52,0.47,0.94,1.08,1.35,1.66c0.51,0.73,0.35,1.41-0.38,1.89c-1.48,0.99-3.77,0.89-5.05-0.34
			c-0.44-0.42-0.83-1.09-0.87-1.68c-0.12-1.5-0.12-3.02-0.02-4.52c0.08-1.15,0.67-2.04,1.85-2.48c0.87-0.32,1.69-0.76,2.54-1.12
			c0.69-0.29,1.18-0.79,1.52-1.45c0.83-1.6,1.16-3.34,1.24-5.11c0.1-2.18,0.07-4.37,0-6.56c-0.04-1.21-0.25-2.42-0.43-3.63
			c-0.12-0.83,0.31-1.58,1.19-1.91c0.65-0.24,1.36,0.04,1.69,0.82c0.27,0.63,0.39,1.32,0.5,2c0.28,1.8,0.54,3.61,0.76,5.43
			c0.07,0.58,0.35,0.98,0.79,1.29c1.81,1.26,4.06,1.12,5.41-0.7c2.84-3.84,5.81-7.59,8.76-11.36c0.29-0.38,0.74-0.68,1.18-0.89
			c0.5-0.24,1.03-0.13,1.46,0.26c0.43,0.39,0.49,0.9,0.29,1.39c-0.21,0.52-0.48,1.03-0.79,1.5c-1.87,2.82-3.77,5.63-5.65,8.45
			c-0.2,0.29-0.38,0.61-0.49,0.94c-0.12,0.35,0.06,0.56,0.42,0.44c0.33-0.11,0.67-0.27,0.96-0.47c3.34-2.32,6.66-4.65,10.01-6.96
			c0.36-0.25,0.86-0.46,1.27-0.43c1.12,0.09,1.56,1.04,0.99,2.02c-0.19,0.32-0.46,0.6-0.76,0.83c-3.05,2.39-6.11,4.76-9.16,7.16
			c-0.41,0.32-0.77,0.72-1.06,1.15c-0.3,0.44-0.1,0.83,0.44,0.79c0.72-0.07,1.47-0.17,2.14-0.43c3.04-1.17,6.06-2.4,9.08-3.61
			c0.06-0.02,0.11-0.06,0.17-0.08c0.91-0.35,1.76-0.14,2.05,0.51c0.32,0.72-0.1,1.69-0.93,2.08c-2.2,1.05-4.41,2.09-6.61,3.13
			c-1.29,0.61-2.6,1.2-3.86,1.87c-0.39,0.21-1,0.73-0.94,0.93c0.18,0.55,0.81,0.36,1.27,0.3c2.29-0.3,4.57-0.64,6.86-0.94
			c0.8-0.11,1.63-0.27,2.42-0.19c0.94,0.09,1.4,0.74,1.38,1.58c-0.03,0.79-0.54,1.31-1.44,1.5c-2.59,0.54-5.18,1.08-7.76,1.66
			c-0.62,0.14-1.27,0.37-1.8,0.71c-1.75,1.12-3.46,2.3-5.19,3.46C271.8,431.93,271.7,431.98,271.4,432.15z"/>
	</g>
	<text transform="matrix(1.1331 0 0 1 249.4544 446.6685)" class="st8 st15 st16">JAEA</text>
	<text transform="matrix(1 0 0 1 250.1414 450.6246)"><tspan x="0" y="0" class="st8 st17 st18">Jóvenes Aventureros</tspan><tspan x="10.8" y="5.11" class="st8 st17 st18">En Acción</tspan></text>
</g>
</svg>
